<?xml version="1.0" encoding="utf-8"?>
<svg version="1.2" baseProfile="tiny" xmlns="http://www.w3.org/2000/svg" viewBox="0 0 260 90">
<path fill="#343E48" d="M219.58,31.22c1.18-0.26,2.22-0.4,3.12-0.42c0.9-0.03,1.74-0.04,2.51-0.04c1.03,0,2.08,0.03,3.16,0.08
	c1.08,0.05,2.06,0.18,2.93,0.38l8.33,34.61l9.41-34.61c1.7-0.31,3.44-0.46,5.25-0.46c0.77,0,1.59,0.01,2.47,0.04
	c0.87,0.03,1.95,0.17,3.24,0.42l-14.89,49.04c-0.62,1.94-1.35,3.55-2.2,4.83c-0.85,1.28-1.81,2.28-2.89,2.99
	c-1.08,0.72-2.29,1.21-3.63,1.5c-1.34,0.28-2.78,0.42-4.32,0.42c-1.44,0-2.74-0.09-3.9-0.27c-1.16-0.18-2.3-0.42-3.43-0.73
	c-0.05-0.26-0.08-0.47-0.08-0.65c0-0.18,0-0.37,0-0.58c0-1.23,0.14-2.39,0.42-3.49c0.28-1.1,0.63-2.16,1.04-3.18
	c0.46,0.15,1.08,0.29,1.85,0.42c0.77,0.13,1.54,0.19,2.31,0.19c0.62,0,1.23-0.04,1.85-0.12c0.62-0.08,1.22-0.31,1.81-0.69
	c0.59-0.38,1.14-0.99,1.66-1.8c0.51-0.82,0.98-1.97,1.39-3.45l1.31-4.76c-0.57,0.05-1.2,0.09-1.89,0.12
	c-0.69,0.02-1.4,0.04-2.12,0.04c-0.57,0-1.11,0-1.62,0c-0.51,0-0.98-0.05-1.39-0.15L219.58,31.22z M187.88,50.4l-7.64-19.18
	c1.7-0.31,3.57-0.46,5.63-0.46c1.95,0,3.93,0.15,5.94,0.46l6.09,19.41l-7.95,20.26c-1.85,0.31-3.68,0.46-5.48,0.46
	c-1.8,0-3.7-0.15-5.71-0.46L187.88,50.4z M198.44,50.63l6.17-19.41c1.9-0.31,3.88-0.46,5.94-0.46c1.9,0,3.78,0.15,5.63,0.46
	l-7.71,19.18l9.18,20.49c-2,0.31-3.91,0.46-5.71,0.46c-1.8,0-3.63-0.15-5.48-0.46L198.44,50.63z M156.33,71.81
	c-3.24,0-6.06-0.53-8.45-1.57c-2.39-1.05-4.37-2.51-5.94-4.37c-1.57-1.87-2.75-4.05-3.55-6.56c-0.8-2.51-1.2-5.22-1.2-8.13
	c0-2.92,0.4-5.65,1.2-8.21c0.8-2.56,1.98-4.77,3.55-6.64c1.57-1.87,3.55-3.34,5.94-4.41c2.39-1.07,5.21-1.61,8.45-1.61
	c3.24,0,6.07,0.54,8.49,1.61c2.42,1.07,4.42,2.55,6.02,4.41c1.59,1.87,2.78,4.08,3.55,6.64c0.77,2.56,1.16,5.3,1.16,8.21
	c0,2.92-0.39,5.63-1.16,8.13c-0.77,2.51-1.95,4.69-3.55,6.56c-1.59,1.87-3.6,3.33-6.02,4.37C162.4,71.29,159.57,71.81,156.33,71.81z
	 M156.33,63.53c2.88,0,4.95-1.06,6.21-3.18c1.26-2.12,1.89-5.18,1.89-9.17c0-3.99-0.63-7.05-1.89-9.17
	c-1.26-2.12-3.33-3.18-6.21-3.18c-2.83,0-4.87,1.06-6.13,3.18c-1.26,2.12-1.89,5.18-1.89,9.17c0,3.99,0.63,7.05,1.89,9.17
	C151.46,62.46,153.5,63.53,156.33,63.53z M113.83,39.51h-6.33c-0.15-0.82-0.26-1.56-0.31-2.23c-0.05-0.66-0.08-1.35-0.08-2.07
	c0-0.66,0.03-1.3,0.08-1.92c0.05-0.61,0.15-1.3,0.31-2.07h6.33V29.3c0-2.46,0.37-4.64,1.12-6.56c0.74-1.92,1.81-3.53,3.2-4.83
	c1.39-1.3,3.05-2.3,4.98-2.99c1.93-0.69,4.05-1.04,6.36-1.04c1.54,0,2.84,0.06,3.9,0.19c1.05,0.13,2.2,0.37,3.43,0.73
	c-0.1,1.69-0.27,3.21-0.5,4.57c-0.23,1.36-0.61,2.7-1.12,4.03c-0.57-0.1-1.16-0.22-1.77-0.34c-0.62-0.13-1.44-0.19-2.47-0.19
	c-1.8,0-3.27,0.42-4.4,1.27c-1.13,0.84-1.75,2.65-1.85,5.41v1.69h9.26c0.15,0.82,0.26,1.56,0.31,2.23c0.05,0.67,0.08,1.36,0.08,2.07
	c0,0.67-0.03,1.3-0.08,1.92c-0.05,0.61-0.15,1.3-0.31,2.07h-9.26v31.39c-1.85,0.31-3.65,0.46-5.4,0.46c-1.8,0-3.63-0.15-5.48-0.46
	V39.51z"/>
<linearGradient id="SVGID_1_" gradientUnits="userSpaceOnUse" x1="50.1603" y1="32.411" x2="76.3404" y2="58.5911">
	<stop  offset="0" style="stop-color:#FAB900"/>
	<stop  offset="1" style="stop-color:#F39600"/>
</linearGradient>
<path fill="url(#SVGID_1_)" d="M84.76,0.35c-0.34-0.2-0.73-0.3-1.12-0.29c-0.29,0.01-0.59,0.08-0.87,0.22
	c-0.19,0.1-0.36,0.22-0.53,0.38L55.13,27.64L42.92,39.79l-0.03,0.03L16.78,65.79l21.76,21.65c0.15,0.15,0.3,0.28,0.46,0.41
	c1.9,1.55,4.51,1.81,6.65,0.77c0.15-0.07,0.3-0.16,0.45-0.24c0.17-0.1,0.34-0.21,0.5-0.33c0.25-0.18,0.49-0.38,0.71-0.6l34.83-34.65
	c0.15-0.14,0.29-0.29,0.42-0.44c2.06-2.26,3.21-5.22,3.21-8.29v-4.24v0V27.64V2.12c0-0.46-0.14-0.86-0.37-1.18
	C85.23,0.7,85.01,0.5,84.76,0.35z"/>
<linearGradient id="SVGID_2_" gradientUnits="userSpaceOnUse" x1="8.4186" y1="19.2242" x2="35.9824" y2="46.7881">
	<stop  offset="0" style="stop-color:#F29100"/>
	<stop  offset="1" style="stop-color:#EB6608"/>
</linearGradient>
<path fill="url(#SVGID_2_)" d="M16.78,65.79l26.11-25.97l0.03-0.03l12.21-12.15H30.71h0H0v12.18v0V44c0,3.27,1.31,6.41,3.63,8.73
	L16.78,65.79z"/>
<linearGradient id="SVGID_3_" gradientUnits="userSpaceOnUse" x1="-5.5412" y1="6.7477" x2="23.0308" y2="35.3197">
	<stop  offset="0" style="stop-color:#EB6608"/>
	<stop  offset="1" style="stop-color:#E20613"/>
</linearGradient>
<path fill="url(#SVGID_3_)" d="M3.53,0.61C2.23-0.69,0,0.23,0,2.06v25.58h30.71L3.53,0.61z"/>
<linearGradient id="SVGID_4_" gradientUnits="userSpaceOnUse" x1="33.8369" y1="44.6061" x2="36.0007" y2="46.7698">
	<stop  offset="0" style="stop-color:#D85409"/>
	<stop  offset="1" style="stop-color:#B03507"/>
</linearGradient>
<polygon fill="url(#SVGID_4_)" points="16.78,65.79 42.89,39.82 42.92,39.79 55.13,27.64 14.71,63.73 "/>
<linearGradient id="SVGID_5_" gradientUnits="userSpaceOnUse" x1="15.3539" y1="25.343" x2="15.3539" y2="27.6428">
	<stop  offset="0" style="stop-color:#BD5404"/>
	<stop  offset="1" style="stop-color:#881002"/>
</linearGradient>
<polygon fill="url(#SVGID_5_)" points="0,25.34 0,27.64 30.71,27.64 "/>
<g>
</g>
<g>
</g>
<g>
</g>
<g>
</g>
<g>
</g>
<g>
</g>
</svg>
